<?xml version="1.0" encoding="UTF-8"?>
<svg id="Layer_1" data-name="Layer 1" xmlns="http://www.w3.org/2000/svg" viewBox="0 0 1063.83 279.51">
  <defs>
    <style>
      .cls-1 {
        fill: #fff;
      }
    </style>
  </defs>
  <g>
    <g>
      <path class="cls-1" d="M132.53,95.44c9.67,10.94,14.5,25.74,14.5,44.39v83.18h-49.86v-76.57c0-8.14-2.12-14.54-6.36-19.21-4.24-4.66-9.92-7-17.04-7s-13.32,2.33-17.55,7c-4.24,4.67-6.36,11.07-6.36,19.21v76.57H0V80.3h49.86v20.35c4.41-6.44,10.34-11.66,17.81-15.64,7.46-3.98,16.03-5.98,25.69-5.98,16.45,0,29.51,5.47,39.18,16.41Z"/>
      <path class="cls-1" d="M224.37,80.3v142.71h-49.86V80.3h49.86Z"/>
      <path class="cls-1" d="M481.68,95.31c10.26,10.85,15.39,25.69,15.39,44.52v83.18h-49.86v-76.57c0-7.63-2.12-13.57-6.36-17.81-4.24-4.24-10.01-6.36-17.3-6.36s-13.06,2.12-17.3,6.36c-4.24,4.24-6.36,10.18-6.36,17.81v76.57h-49.86v-76.57c0-7.63-2.08-13.57-6.23-17.81-4.16-4.24-9.88-6.36-17.17-6.36s-13.32,2.12-17.55,6.36-6.36,10.18-6.36,17.81v76.57h-49.86V80.3h49.86v18.83c4.41-6.11,10.13-10.98,17.17-14.63,7.04-3.65,15.14-5.47,24.29-5.47,10.51,0,19.88,2.29,28.11,6.87,8.22,4.58,14.71,11.03,19.46,19.33,5.09-7.8,11.79-14.12,20.1-18.95,8.31-4.83,17.47-7.25,27.47-7.25,17.97,0,32.09,5.43,42.35,16.28Z"/>
      <path class="cls-1" d="M574.14,34.76v188.25h-49.86V34.76h49.86Z"/>
      <path class="cls-1" d="M602.5,112.86c5.34-11.02,12.63-19.5,21.88-25.44,9.24-5.93,19.54-8.9,30.91-8.9,9.83,0,18.32,1.95,25.44,5.85,7.12,3.9,12.63,9.16,16.54,15.77v-19.84h49.86v142.71h-49.86v-19.84c-3.9,6.61-9.45,11.87-16.66,15.77-7.21,3.9-15.64,5.85-25.31,5.85-11.36,0-21.67-2.96-30.91-8.9-9.25-5.93-16.54-14.46-21.88-25.57-5.34-11.1-8.01-24.04-8.01-38.79s2.67-27.64,8.01-38.67ZM689.76,129.9c-5-5.25-11.15-7.88-18.44-7.88s-13.65,2.59-18.57,7.76c-4.92,5.17-7.38,12.42-7.38,21.75s2.46,16.41,7.38,21.75c4.92,5.34,11.11,8.01,18.57,8.01s13.44-2.63,18.44-7.89c5-5.25,7.5-12.55,7.5-21.88s-2.5-16.36-7.5-21.62Z"/>
      <path class="cls-1" d="M838.69,182.31c-6.27,0-11.23-2.63-14.88-7.89-3.64-5.25-5.47-12.88-5.47-22.89s1.83-17.59,5.47-22.77c3.65-5.18,8.61-7.76,14.88-7.76,8.83,0,14.75,4.67,17.81,13.99h52.91c-3.56-17.81-11.52-31.67-23.91-41.59-12.38-9.92-27.64-14.88-45.79-14.88-9.56,0-18.42,1.37-26.53,4.12,2.07,2.87,3.4,6.31,3.71,9.97,1.78.34,3.5,1.07,5.01,2.14,2.75,1.98,4.59,5.01,5.07,8.32.39,2.75-.18,5.57-1.58,7.98,2.25,1.37,3.75,3.87,3.75,6.7,0,3.88-2.82,7.11-6.54,7.72.19.65.28,1.32.28,2.02,0,4.32-3.52,7.85-7.85,7.85-2.54,0-4.83-1.2-6.27-3.12h-6.12c1.21,1.39,1.92,3.19,1.92,5.15,0,4.32-3.52,7.85-7.85,7.85s-7.86-3.52-7.86-7.85c0-1.96.71-3.76,1.93-5.15h-4.53c-1.44,1.92-3.73,3.12-6.28,3.12-4.32,0-7.85-3.52-7.85-7.85,0-.65.08-1.28.24-1.9-.39,0-.79-.04-1.17-.1-2.51,7.91-3.75,16.59-3.75,26.04,0,14.92,3.05,27.89,9.16,38.92,6.11,11.03,14.63,19.5,25.57,25.44,10.94,5.94,23.45,8.9,37.52,8.9,18.15,0,33.41-5,45.79-15.01,12.39-10.01,20.35-23.82,23.91-41.46h-52.91c-2.87,9.32-8.81,13.99-17.81,13.99Z"/>
      <path class="cls-1" d="M931.04,112.86c6.1-11.02,14.63-19.5,25.57-25.44,10.94-5.93,23.44-8.9,37.52-8.9,18.14,0,33.41,4.96,45.79,14.88,12.38,9.92,20.35,23.78,23.91,41.59h-52.91c-3.05-9.32-8.99-13.99-17.81-13.99-6.28,0-11.24,2.59-14.88,7.76-3.65,5.17-5.47,12.76-5.47,22.77s1.82,17.64,5.47,22.89c3.65,5.26,8.61,7.89,14.88,7.89,8.99,0,14.92-4.66,17.81-13.99h52.91c-3.56,17.64-11.54,31.46-23.91,41.47-12.38,10.01-27.64,15.01-45.79,15.01-14.08,0-26.58-2.96-37.52-8.9-10.94-5.93-19.46-14.41-25.57-25.44-6.1-11.02-9.16-24-9.16-38.92s3.05-27.64,9.16-38.67Z"/>
    </g>
    <path class="cls-1" d="M236.41,38.69v-2.97l-5.66-1.17c-.08-1.14-.23-2.27-.44-3.37l5.16-2.59-.77-2.86-5.67.71c-.36-1.01-.77-1.99-1.22-2.95l4.52-3.51-1.48-2.57-5.48,1.82c-.64-.94-1.33-1.84-2.07-2.7l3.18-4.83-2.1-2.1-4.56,3.46c-.81-.69-1.65-1.34-2.53-1.94l2.15-5.3-2.57-1.48-3.84,4.31c-1.02-.49-2.07-.93-3.14-1.31l.33-5.76-2.87-.77-2.22,5.27h0c-.08-.01-.17-.03-.26-.04-.08-.02-.16-.03-.25-.04-.91-.16-1.83-.28-2.77-.35l-1.17-5.64h-2.96l-.78,5.62c-1.08.08-2.15.21-3.2.4l-2.19-5.2-2.87.77.33,5.65c-1.11.38-2.18.82-3.23,1.31l-3.75-4.21-2.57,1.48,2.1,5.15c-.9.62-1.77,1.28-2.6,1.98l-4.43-3.35-2.1,2.1,3.07,4.67c-.77.89-1.5,1.82-2.17,2.79l-5.28-1.75-1.48,2.57,4.32,3.36c-.48.99-.9,2.02-1.28,3.06l-5.43-.68-.77,2.86,4.92,2.48c-.22,1.16-.38,2.34-.46,3.54l-5.4,1.12v2.97l5.41.75c.09,1.12.23,2.21.43,3.29l-5.03,2.12.77,2.87,5.51-.32c.4,1.12.85,2.22,1.37,3.29l-4.13,3.68,1.48,2.57,5.1-2.08c.63.9,1.3,1.77,2.02,2.6l-3.34,4.41,2.1,2.1,4.69-3.08c.89.76,1.82,1.47,2.79,2.13l-1.77,5.33,2.57,1.48,3.43-4.41c.98.46,1.98.87,3.01,1.23l-.7,5.56,2.86.77,2.56-5.09c1.09.2,2.19.34,3.31.42l.78,5.62h2.96l1.17-5.64c1.05-.08,2.09-.22,3.1-.41.09-.01.18-.03.27-.05l2.6,5.16,2.86-.77-.71-5.67c1.01-.36,1.99-.77,2.95-1.22l3.51,4.51,2.57-1.48-1.82-5.49c.94-.64,1.84-1.33,2.69-2.07l4.83,3.18,2.1-2.1-3.45-4.56c.69-.81,1.33-1.65,1.94-2.52l5.3,2.15,1.48-2.57-4.31-3.84c.49-1.02.92-2.07,1.3-3.14l5.76.33.77-2.87-5.27-2.22c.19-1.04.33-2.09.41-3.16l5.67-.78ZM199.24,59.5c-12.43,0-22.54-10.11-22.54-22.54s10.11-22.54,22.54-22.54,22.54,10.11,22.54,22.54-10.11,22.54-22.54,22.54Z"/>
    <g>
      <path class="cls-1" d="M202.06,19.95c0,1.33.93,2.45,2.17,2.73v2.87h-2.36v-1.47c-.31-3.43-3.48-5.93-6.83-5.45-3.33.48-5.67,3.71-5.05,7.08-5.77-.73-11.1,3.13-12.2,8.54-1.17,5.81,2.85,11.79,9.03,12.85-.2,3.85,2.36,7.24,5.86,8.05,3.92.9,8.13-1.63,9.19-5.85v-.94h2.36v2.87c-1.24.29-2.17,1.4-2.17,2.73,0,1.55,1.26,2.81,2.81,2.81s2.8-1.26,2.8-2.81c0-1.33-.93-2.44-2.17-2.73v-4.14h-3.64v-9.41h13.91c.29,1.24,1.4,2.17,2.73,2.17,1.55,0,2.8-1.26,2.8-2.81s-1.26-2.8-2.8-2.8c-1.33,0-2.45.92-2.73,2.17h-13.91v-9.58h3.64v-4.14c1.24-.29,2.17-1.41,2.17-2.73,0-1.55-1.26-2.8-2.8-2.8s-2.81,1.26-2.81,2.8ZM206.4,53.96c0,.85-.69,1.54-1.53,1.54s-1.54-.69-1.54-1.54.69-1.53,1.54-1.53,1.53.69,1.53,1.53ZM218.52,35.52c.84,0,1.53.69,1.53,1.53s-.69,1.54-1.53,1.54-1.54-.69-1.54-1.54.69-1.53,1.54-1.53ZM206.4,19.95c0,.85-.69,1.54-1.53,1.54s-1.54-.69-1.54-1.54.69-1.53,1.54-1.53,1.53.69,1.53,1.53Z"/>
      <g>
        <path class="cls-1" d="M203.19,43.08h7.82v2.87c-1.24.29-2.17,1.41-2.17,2.73,0,1.55,1.26,2.8,2.8,2.8s2.81-1.26,2.81-2.8c0-1.33-.93-2.45-2.17-2.73v-4.14h-9.09v1.27ZM213.18,48.68c0,.84-.69,1.53-1.54,1.53s-1.53-.69-1.53-1.53.69-1.54,1.53-1.54,1.54.69,1.54,1.54Z"/>
        <path class="cls-1" d="M208.84,24.31c0,1.33.93,2.45,2.17,2.73v3.6h-7.82v1.27h9.09v-4.87c1.24-.29,2.17-1.4,2.17-2.73,0-1.55-1.26-2.8-2.81-2.8s-2.8,1.26-2.8,2.8ZM213.18,24.31c0,.85-.69,1.54-1.54,1.54s-1.53-.69-1.53-1.54.69-1.53,1.53-1.53,1.54.69,1.54,1.53Z"/>
      </g>
    </g>
    <g>
      <path class="cls-1" d="M821.31,113.71c-1.91,0-3.52,1.34-3.93,3.12h-4.12v-3.4h2.11c4.94-.44,8.52-5,7.83-9.82-.69-4.79-5.34-8.15-10.18-7.26,1.05-8.3-4.5-15.97-12.28-17.54-8.36-1.69-16.95,4.1-18.48,12.98-5.53-.28-10.42,3.4-11.58,8.43-1.3,5.63,2.35,11.69,8.42,13.21h1.35v3.4h-4.12c-.41-1.79-2.02-3.12-3.92-3.12-2.23,0-4.04,1.81-4.04,4.04s1.81,4.03,4.04,4.03c1.91,0,3.51-1.34,3.92-3.11h5.95v-5.23h13.53v20.01c-1.79.41-3.12,2.02-3.12,3.93,0,2.23,1.81,4.03,4.04,4.03s4.03-1.8,4.03-4.03c0-1.91-1.33-3.52-3.11-3.93v-20.01h13.78v5.23h5.95c.41,1.78,2.02,3.11,3.93,3.11,2.23,0,4.03-1.81,4.03-4.03s-1.8-4.04-4.03-4.04ZM772.41,119.95c-1.22,0-2.21-.99-2.21-2.2s.99-2.21,2.21-2.21,2.2.99,2.2,2.21-.99,2.2-2.2,2.2ZM798.93,137.37c0,1.21-.99,2.2-2.2,2.2s-2.21-.99-2.21-2.2.99-2.21,2.21-2.21,2.2.99,2.2,2.21ZM821.31,119.95c-1.22,0-2.21-.99-2.21-2.2s.99-2.21,2.21-2.21,2.2.99,2.2,2.21-.99,2.2-2.2,2.2Z"/>
      <g>
        <path class="cls-1" d="M788.05,115.33v11.24h-4.12c-.41-1.78-2.02-3.11-3.93-3.11-2.23,0-4.03,1.81-4.03,4.03s1.8,4.04,4.03,4.04c1.91,0,3.52-1.34,3.93-3.12h5.95v-13.07h-1.83ZM780,129.69c-1.21,0-2.2-.99-2.2-2.21s.99-2.2,2.2-2.2,2.21.99,2.21,2.2-.99,2.21-2.21,2.21Z"/>
        <path class="cls-1" d="M815.05,123.45c-1.91,0-3.52,1.34-3.93,3.11h-5.18v-11.24h-1.83v13.07h7.01c.41,1.79,2.02,3.12,3.93,3.12,2.23,0,4.03-1.81,4.03-4.04s-1.8-4.03-4.03-4.03ZM815.05,129.69c-1.22,0-2.21-.99-2.21-2.21s.99-2.2,2.21-2.2,2.2.99,2.2,2.2-.99,2.21-2.2,2.21Z"/>
      </g>
    </g>
  </g>
  <g>
    <path class="cls-1" d="M22.11,270.05h-3.96l-11.93-18.05v18.05h-3.96v-24.2h3.96l11.93,18.01v-18.01h3.96v24.2Z"/>
    <path class="cls-1" d="M27.2,255.27c.8-1.48,1.89-2.64,3.27-3.46,1.38-.82,2.9-1.23,4.57-1.23,1.51,0,2.82.3,3.95.89,1.12.59,2.02,1.33,2.7,2.21v-2.78h4v19.16h-4v-2.85c-.67.9-1.59,1.66-2.75,2.26s-2.48.9-3.96.9c-1.65,0-3.15-.42-4.52-1.27-1.37-.85-2.45-2.03-3.25-3.55-.8-1.52-1.2-3.24-1.2-5.16s.4-3.63,1.2-5.11ZM40.87,257.01c-.55-.97-1.26-1.72-2.14-2.23-.88-.51-1.83-.77-2.85-.77s-1.97.25-2.85.75-1.59,1.23-2.14,2.19c-.55.96-.82,2.1-.82,3.42s.27,2.48.82,3.48c.54,1,1.26,1.76,2.16,2.28.89.52,1.84.78,2.83.78s1.97-.26,2.85-.77c.88-.51,1.59-1.26,2.14-2.24.54-.98.82-2.14.82-3.46s-.27-2.47-.82-3.44Z"/>
    <path class="cls-1" d="M55.53,254.12v10.61c0,.72.17,1.23.5,1.55.34.31.91.47,1.72.47h2.43v3.3h-3.13c-1.78,0-3.15-.42-4.1-1.25s-1.43-2.19-1.43-4.07v-10.61h-2.26v-3.23h2.26v-4.76h4v4.76h4.66v3.23h-4.66Z"/>
    <path class="cls-1" d="M64.04,247.62c-.49-.49-.73-1.09-.73-1.81s.24-1.32.73-1.81c.49-.49,1.09-.73,1.81-.73s1.29.24,1.77.73.73,1.09.73,1.81-.24,1.32-.73,1.81-1.08.73-1.77.73-1.32-.24-1.81-.73ZM67.8,250.89v19.16h-3.96v-19.16h3.96Z"/>
    <path class="cls-1" d="M76.42,269.13c-1.46-.82-2.61-1.98-3.44-3.48-.83-1.5-1.25-3.23-1.25-5.2s.43-3.67,1.29-5.18c.86-1.51,2.03-2.67,3.51-3.48,1.48-.81,3.14-1.22,4.97-1.22s3.49.41,4.97,1.22c1.48.81,2.65,1.97,3.51,3.48s1.29,3.23,1.29,5.18-.44,3.67-1.32,5.18-2.08,2.67-3.6,3.49c-1.52.82-3.19,1.23-5.02,1.23s-3.44-.41-4.9-1.23ZM84.19,266.19c.89-.49,1.62-1.22,2.17-2.19s.83-2.16.83-3.55-.27-2.57-.8-3.53c-.53-.96-1.24-1.69-2.12-2.17s-1.83-.73-2.85-.73-1.97.24-2.83.73c-.87.49-1.56,1.21-2.07,2.17-.51.96-.77,2.14-.77,3.53,0,2.06.53,3.66,1.58,4.78,1.05,1.12,2.38,1.69,3.98,1.69,1.02,0,1.98-.24,2.87-.73Z"/>
    <path class="cls-1" d="M108.91,251.52c1.19.62,2.13,1.55,2.8,2.78s1.01,2.71,1.01,4.45v11.3h-3.93v-10.71c0-1.72-.43-3.03-1.29-3.95-.86-.92-2.03-1.37-3.51-1.37s-2.66.46-3.53,1.37c-.87.92-1.3,2.23-1.3,3.95v10.71h-3.96v-19.16h3.96v2.19c.65-.79,1.48-1.4,2.49-1.84,1.01-.44,2.08-.66,3.22-.66,1.51,0,2.86.31,4.05.94Z"/>
    <path class="cls-1" d="M117.64,255.27c.8-1.48,1.89-2.64,3.27-3.46,1.38-.82,2.9-1.23,4.57-1.23,1.51,0,2.82.3,3.95.89,1.12.59,2.02,1.33,2.7,2.21v-2.78h4v19.16h-4v-2.85c-.67.9-1.59,1.66-2.75,2.26s-2.48.9-3.96.9c-1.65,0-3.15-.42-4.52-1.27-1.37-.85-2.45-2.03-3.25-3.55-.8-1.52-1.2-3.24-1.2-5.16s.4-3.63,1.2-5.11ZM131.31,257.01c-.55-.97-1.26-1.72-2.14-2.23-.88-.51-1.83-.77-2.85-.77s-1.97.25-2.85.75-1.59,1.23-2.14,2.19c-.55.96-.82,2.1-.82,3.42s.27,2.48.82,3.48c.54,1,1.26,1.76,2.16,2.28.89.52,1.84.78,2.83.78s1.97-.26,2.85-.77c.88-.51,1.59-1.26,2.14-2.24.54-.98.82-2.14.82-3.46s-.27-2.47-.82-3.44Z"/>
    <path class="cls-1" d="M145.3,244.32v25.73h-3.96v-25.73h3.96Z"/>
    <path class="cls-1" d="M163.52,245.88v24.17h-3.96v-24.17h3.96Z"/>
    <path class="cls-1" d="M182.45,251.52c1.19.62,2.13,1.55,2.8,2.78s1.01,2.71,1.01,4.45v11.3h-3.93v-10.71c0-1.72-.43-3.03-1.29-3.95-.86-.92-2.03-1.37-3.51-1.37s-2.66.46-3.53,1.37c-.87.92-1.3,2.23-1.3,3.95v10.71h-3.96v-19.16h3.96v2.19c.65-.79,1.48-1.4,2.49-1.84,1.01-.44,2.08-.66,3.22-.66,1.51,0,2.86.31,4.05.94Z"/>
    <path class="cls-1" d="M194.2,269.54c-1.19-.54-2.14-1.29-2.83-2.22-.69-.94-1.07-1.99-1.11-3.15h4.1c.07.81.46,1.49,1.17,2.03.71.54,1.59.82,2.66.82s1.98-.21,2.59-.64c.61-.43.92-.98.92-1.65,0-.72-.34-1.25-1.02-1.6-.68-.35-1.77-.73-3.25-1.15-1.44-.39-2.61-.78-3.51-1.15s-1.69-.94-2.35-1.7c-.66-.77-.99-1.77-.99-3.02,0-1.02.3-1.95.9-2.8.6-.85,1.47-1.51,2.59-2s2.42-.73,3.88-.73c2.18,0,3.94.55,5.27,1.65,1.33,1.1,2.05,2.6,2.14,4.5h-3.96c-.07-.86-.42-1.54-1.04-2.05-.63-.51-1.47-.77-2.54-.77s-1.84.2-2.4.59c-.56.39-.83.92-.83,1.57,0,.51.19.94.56,1.29.37.35.82.62,1.36.82.53.2,1.32.45,2.36.75,1.39.37,2.53.75,3.42,1.13.89.38,1.66.95,2.31,1.69.65.74.98,1.73,1.01,2.95,0,1.09-.3,2.06-.9,2.92-.6.86-1.45,1.53-2.56,2.02-1.1.49-2.39.73-3.88.73s-2.86-.27-4.05-.82Z"/>
    <path class="cls-1" d="M214.49,254.12v10.61c0,.72.17,1.23.5,1.55.34.31.91.47,1.72.47h2.43v3.3h-3.13c-1.78,0-3.15-.42-4.1-1.25s-1.43-2.19-1.43-4.07v-10.61h-2.26v-3.23h2.26v-4.76h4v4.76h4.66v3.23h-4.66Z"/>
    <path class="cls-1" d="M223.01,247.62c-.49-.49-.73-1.09-.73-1.81s.24-1.32.73-1.81c.49-.49,1.09-.73,1.81-.73s1.29.24,1.77.73.73,1.09.73,1.81-.24,1.32-.73,1.81-1.08.73-1.77.73-1.32-.24-1.81-.73ZM226.77,250.89v19.16h-3.96v-19.16h3.96Z"/>
    <path class="cls-1" d="M236.61,254.12v10.61c0,.72.17,1.23.5,1.55.34.31.91.47,1.72.47h2.43v3.3h-3.13c-1.78,0-3.15-.42-4.1-1.25s-1.43-2.19-1.43-4.07v-10.61h-2.26v-3.23h2.26v-4.76h4v4.76h4.66v3.23h-4.66Z"/>
    <path class="cls-1" d="M262.27,250.89v19.16h-3.96v-2.26c-.63.79-1.44,1.41-2.45,1.86-1.01.45-2.08.68-3.22.68-1.51,0-2.86-.31-4.05-.94-1.19-.63-2.13-1.55-2.82-2.78-.68-1.23-1.02-2.71-1.02-4.45v-11.27h3.93v10.67c0,1.72.43,3.03,1.29,3.95.86.92,2.03,1.37,3.51,1.37s2.66-.46,3.53-1.37,1.3-2.23,1.3-3.95v-10.67h3.96Z"/>
    <path class="cls-1" d="M272.11,254.12v10.61c0,.72.17,1.23.5,1.55.34.31.91.47,1.72.47h2.43v3.3h-3.13c-1.78,0-3.15-.42-4.1-1.25s-1.43-2.19-1.43-4.07v-10.61h-2.26v-3.23h2.26v-4.76h4v4.76h4.66v3.23h-4.66Z"/>
    <path class="cls-1" d="M297.84,261.95h-14.64c.12,1.53.68,2.76,1.7,3.69,1.02.93,2.27,1.39,3.75,1.39,2.13,0,3.64-.89,4.52-2.68h4.28c-.58,1.76-1.63,3.2-3.15,4.33-1.52,1.13-3.4,1.69-5.65,1.69-1.83,0-3.47-.41-4.92-1.23-1.45-.82-2.58-1.98-3.41-3.48-.82-1.5-1.23-3.23-1.23-5.2s.4-3.7,1.2-5.2c.8-1.5,1.92-2.65,3.37-3.46,1.45-.81,3.11-1.22,4.99-1.22s3.42.39,4.83,1.18c1.41.79,2.52,1.89,3.3,3.32.79,1.43,1.18,3.07,1.18,4.92,0,.72-.05,1.37-.14,1.95ZM293.84,258.75c-.02-1.46-.55-2.63-1.57-3.51s-2.28-1.32-3.79-1.32c-1.37,0-2.54.43-3.51,1.3-.97.87-1.55,2.05-1.74,3.53h10.61Z"/>
    <path class="cls-1" d="M314.32,269.13c-1.46-.82-2.61-1.98-3.44-3.48-.83-1.5-1.25-3.23-1.25-5.2s.43-3.67,1.29-5.18c.86-1.51,2.03-2.67,3.51-3.48,1.48-.81,3.14-1.22,4.97-1.22s3.49.41,4.97,1.22c1.48.81,2.65,1.97,3.51,3.48s1.29,3.23,1.29,5.18-.44,3.67-1.32,5.18-2.08,2.67-3.6,3.49c-1.52.82-3.19,1.23-5.02,1.23s-3.44-.41-4.9-1.23ZM322.09,266.19c.89-.49,1.62-1.22,2.17-2.19s.83-2.16.83-3.55-.27-2.57-.8-3.53c-.53-.96-1.24-1.69-2.12-2.17s-1.83-.73-2.85-.73-1.97.24-2.83.73c-.87.49-1.56,1.21-2.07,2.17-.51.96-.77,2.14-.77,3.53,0,2.06.53,3.66,1.58,4.78,1.05,1.12,2.38,1.69,3.98,1.69,1.02,0,1.98-.24,2.87-.73Z"/>
    <path class="cls-1" d="M341.13,254.12h-3.55v15.93h-4v-15.93h-2.26v-3.23h2.26v-1.36c0-2.2.59-3.81,1.76-4.82,1.17-1.01,3.01-1.51,5.51-1.51v3.3c-1.21,0-2.05.23-2.54.68-.49.45-.73,1.23-.73,2.35v1.36h3.55v3.23Z"/>
    <path class="cls-1" d="M379.13,245.88v24.17h-3.96v-16.55l-7.37,16.55h-2.75l-7.41-16.55v16.55h-3.96v-24.17h4.28l8.48,18.95,8.45-18.95h4.24Z"/>
    <path class="cls-1" d="M384.22,255.27c.8-1.48,1.89-2.64,3.27-3.46,1.38-.82,2.9-1.23,4.57-1.23,1.51,0,2.82.3,3.95.89,1.12.59,2.02,1.33,2.7,2.21v-2.78h4v19.16h-4v-2.85c-.67.9-1.59,1.66-2.75,2.26s-2.48.9-3.96.9c-1.65,0-3.15-.42-4.52-1.27-1.37-.85-2.45-2.03-3.25-3.55-.8-1.52-1.2-3.24-1.2-5.16s.4-3.63,1.2-5.11ZM397.89,257.01c-.55-.97-1.26-1.72-2.14-2.23-.88-.51-1.83-.77-2.85-.77s-1.97.25-2.85.75-1.59,1.23-2.14,2.19c-.55.96-.82,2.1-.82,3.42s.27,2.48.82,3.48c.54,1,1.26,1.76,2.16,2.28.89.52,1.84.78,2.83.78s1.97-.26,2.85-.77c.88-.51,1.59-1.26,2.14-2.24.54-.98.82-2.14.82-3.46s-.27-2.47-.82-3.44Z"/>
    <path class="cls-1" d="M407.8,255.25c.8-1.5,1.91-2.65,3.32-3.46,1.41-.81,3.04-1.22,4.87-1.22,2.32,0,4.24.55,5.75,1.65,1.52,1.1,2.54,2.67,3.08,4.71h-4.28c-.35-.95-.9-1.69-1.67-2.23-.76-.53-1.73-.8-2.89-.8-1.62,0-2.92.57-3.88,1.72-.96,1.15-1.44,2.75-1.44,4.82s.48,3.67,1.44,4.83c.96,1.16,2.25,1.74,3.88,1.74,2.29,0,3.81-1.01,4.55-3.03h4.28c-.56,1.95-1.6,3.49-3.13,4.64s-3.43,1.72-5.7,1.72c-1.83,0-3.45-.41-4.87-1.23-1.41-.82-2.52-1.98-3.32-3.48-.8-1.5-1.2-3.23-1.2-5.2s.4-3.7,1.2-5.2Z"/>
    <path class="cls-1" d="M442.6,251.52c1.15.62,2.05,1.55,2.71,2.78s.99,2.71.99,4.45v11.3h-3.93v-10.71c0-1.72-.43-3.03-1.29-3.95-.86-.92-2.03-1.37-3.51-1.37s-2.66.46-3.53,1.37c-.87.92-1.3,2.23-1.3,3.95v10.71h-3.96v-25.73h3.96v8.8c.67-.81,1.52-1.44,2.56-1.88,1.03-.44,2.16-.66,3.39-.66,1.46,0,2.76.31,3.91.94Z"/>
    <path class="cls-1" d="M451.56,247.62c-.49-.49-.73-1.09-.73-1.81s.24-1.32.73-1.81c.49-.49,1.09-.73,1.81-.73s1.29.24,1.77.73.73,1.09.73,1.81-.24,1.32-.73,1.81-1.08.73-1.77.73-1.32-.24-1.81-.73ZM455.31,250.89v19.16h-3.96v-19.16h3.96Z"/>
    <path class="cls-1" d="M474.24,251.52c1.19.62,2.13,1.55,2.8,2.78s1.01,2.71,1.01,4.45v11.3h-3.93v-10.71c0-1.72-.43-3.03-1.29-3.95-.86-.92-2.03-1.37-3.51-1.37s-2.66.46-3.53,1.37c-.87.92-1.3,2.23-1.3,3.95v10.71h-3.96v-19.16h3.96v2.19c.65-.79,1.48-1.4,2.49-1.84,1.01-.44,2.08-.66,3.22-.66,1.51,0,2.86.31,4.05.94Z"/>
    <path class="cls-1" d="M500.51,261.95h-14.64c.12,1.53.68,2.76,1.7,3.69,1.02.93,2.27,1.39,3.75,1.39,2.13,0,3.64-.89,4.52-2.68h4.28c-.58,1.76-1.63,3.2-3.15,4.33-1.52,1.13-3.4,1.69-5.65,1.69-1.83,0-3.47-.41-4.92-1.23-1.45-.82-2.58-1.98-3.41-3.48-.82-1.5-1.23-3.23-1.23-5.2s.4-3.7,1.2-5.2c.8-1.5,1.92-2.65,3.37-3.46,1.45-.81,3.11-1.22,4.99-1.22s3.42.39,4.83,1.18c1.41.79,2.52,1.89,3.3,3.32.79,1.43,1.18,3.07,1.18,4.92,0,.72-.05,1.37-.14,1.95ZM496.51,258.75c-.02-1.46-.55-2.63-1.57-3.51s-2.28-1.32-3.79-1.32c-1.37,0-2.54.43-3.51,1.3-.97.87-1.55,2.05-1.74,3.53h10.61Z"/>
    <path class="cls-1" d="M517.55,266.85h8.17v3.2h-12.14v-24.17h3.96v20.97Z"/>
    <path class="cls-1" d="M546.44,261.95h-14.64c.12,1.53.68,2.76,1.7,3.69,1.02.93,2.27,1.39,3.75,1.39,2.13,0,3.64-.89,4.52-2.68h4.28c-.58,1.76-1.63,3.2-3.15,4.33-1.52,1.13-3.4,1.69-5.65,1.69-1.83,0-3.47-.41-4.92-1.23-1.45-.82-2.58-1.98-3.41-3.48-.82-1.5-1.23-3.23-1.23-5.2s.4-3.7,1.2-5.2c.8-1.5,1.92-2.65,3.37-3.46,1.45-.81,3.11-1.22,4.99-1.22s3.42.39,4.83,1.18c1.41.79,2.52,1.89,3.3,3.32.79,1.43,1.18,3.07,1.18,4.92,0,.72-.05,1.37-.14,1.95ZM542.45,258.75c-.02-1.46-.55-2.63-1.57-3.51s-2.28-1.32-3.79-1.32c-1.37,0-2.54.43-3.51,1.3-.97.87-1.55,2.05-1.74,3.53h10.61Z"/>
    <path class="cls-1" d="M550.36,255.27c.8-1.48,1.89-2.64,3.27-3.46,1.38-.82,2.9-1.23,4.57-1.23,1.51,0,2.82.3,3.95.89,1.12.59,2.02,1.33,2.7,2.21v-2.78h4v19.16h-4v-2.85c-.67.9-1.59,1.66-2.75,2.26s-2.48.9-3.96.9c-1.65,0-3.15-.42-4.52-1.27-1.37-.85-2.45-2.03-3.25-3.55-.8-1.52-1.2-3.24-1.2-5.16s.4-3.63,1.2-5.11ZM564.02,257.01c-.55-.97-1.26-1.72-2.14-2.23-.88-.51-1.83-.77-2.85-.77s-1.97.25-2.85.75-1.59,1.23-2.14,2.19c-.55.96-.82,2.1-.82,3.42s.27,2.48.82,3.48c.54,1,1.26,1.76,2.16,2.28.89.52,1.84.78,2.83.78s1.97-.26,2.85-.77c.88-.51,1.59-1.26,2.14-2.24.54-.98.82-2.14.82-3.46s-.27-2.47-.82-3.44Z"/>
    <path class="cls-1" d="M580.33,251.39c.96-.55,2.1-.82,3.43-.82v4.1h-1.01c-1.55,0-2.73.39-3.53,1.18-.8.79-1.2,2.16-1.2,4.1v10.08h-3.96v-19.16h3.96v2.78c.58-.97,1.35-1.73,2.31-2.28Z"/>
    <path class="cls-1" d="M601.12,251.52c1.19.62,2.13,1.55,2.8,2.78s1.01,2.71,1.01,4.45v11.3h-3.93v-10.71c0-1.72-.43-3.03-1.29-3.95-.86-.92-2.03-1.37-3.51-1.37s-2.66.46-3.53,1.37c-.87.92-1.3,2.23-1.3,3.95v10.71h-3.96v-19.16h3.96v2.19c.65-.79,1.48-1.4,2.49-1.84,1.01-.44,2.08-.66,3.22-.66,1.51,0,2.86.31,4.05.94Z"/>
    <path class="cls-1" d="M610.18,247.62c-.49-.49-.73-1.09-.73-1.81s.24-1.32.73-1.81c.49-.49,1.09-.73,1.81-.73s1.29.24,1.77.73.73,1.09.73,1.81-.24,1.32-.73,1.81-1.08.73-1.77.73-1.32-.24-1.81-.73ZM613.93,250.89v19.16h-3.96v-19.16h3.96Z"/>
    <path class="cls-1" d="M632.87,251.52c1.19.62,2.13,1.55,2.8,2.78s1.01,2.71,1.01,4.45v11.3h-3.93v-10.71c0-1.72-.43-3.03-1.29-3.95-.86-.92-2.03-1.37-3.51-1.37s-2.66.46-3.53,1.37c-.87.92-1.3,2.23-1.3,3.95v10.71h-3.96v-19.16h3.96v2.19c.65-.79,1.48-1.4,2.49-1.84,1.01-.44,2.08-.66,3.22-.66,1.51,0,2.86.31,4.05.94Z"/>
    <path class="cls-1" d="M653.38,251.46c1.15.59,2.05,1.33,2.7,2.21v-2.78h4v19.47c0,1.76-.37,3.33-1.11,4.71-.74,1.38-1.81,2.46-3.22,3.25-1.4.79-3.08,1.18-5.02,1.18-2.6,0-4.75-.61-6.47-1.82-1.72-1.22-2.69-2.87-2.92-4.96h3.93c.3,1,.94,1.8,1.93,2.42.98.61,2.16.92,3.53.92,1.6,0,2.89-.49,3.88-1.46s1.48-2.39,1.48-4.24v-3.2c-.67.9-1.58,1.66-2.73,2.28s-2.45.92-3.91.92c-1.67,0-3.19-.42-4.57-1.27-1.38-.85-2.47-2.03-3.27-3.55-.8-1.52-1.2-3.24-1.2-5.16s.4-3.63,1.2-5.11c.8-1.48,1.89-2.64,3.27-3.46,1.38-.82,2.9-1.23,4.57-1.23,1.48,0,2.8.3,3.95.89ZM655.26,257.01c-.55-.97-1.26-1.72-2.14-2.23-.88-.51-1.83-.77-2.85-.77s-1.97.25-2.85.75-1.59,1.23-2.14,2.19c-.55.96-.82,2.1-.82,3.42s.27,2.48.82,3.48c.54,1,1.26,1.76,2.16,2.28.89.52,1.84.78,2.83.78s1.97-.26,2.85-.77c.88-.51,1.59-1.26,2.14-2.24.54-.98.82-2.14.82-3.46s-.27-2.47-.82-3.44Z"/>
    <path class="cls-1" d="M674.21,255.27c.8-1.48,1.89-2.64,3.27-3.46,1.38-.82,2.9-1.23,4.57-1.23,1.51,0,2.82.3,3.95.89,1.12.59,2.02,1.33,2.7,2.21v-2.78h4v19.16h-4v-2.85c-.67.9-1.59,1.66-2.75,2.26s-2.48.9-3.96.9c-1.65,0-3.15-.42-4.52-1.27-1.37-.85-2.45-2.03-3.25-3.55-.8-1.52-1.2-3.24-1.2-5.16s.4-3.63,1.2-5.11ZM687.87,257.01c-.55-.97-1.26-1.72-2.14-2.23-.88-.51-1.83-.77-2.85-.77s-1.97.25-2.85.75-1.59,1.23-2.14,2.19c-.55.96-.82,2.1-.82,3.42s.27,2.48.82,3.48c.54,1,1.26,1.76,2.16,2.28.89.52,1.84.78,2.83.78s1.97-.26,2.85-.77c.88-.51,1.59-1.26,2.14-2.24.54-.98.82-2.14.82-3.46s-.27-2.47-.82-3.44Z"/>
    <path class="cls-1" d="M711.62,251.52c1.19.62,2.13,1.55,2.8,2.78s1.01,2.71,1.01,4.45v11.3h-3.93v-10.71c0-1.72-.43-3.03-1.29-3.95-.86-.92-2.03-1.37-3.51-1.37s-2.66.46-3.53,1.37c-.87.92-1.3,2.23-1.3,3.95v10.71h-3.96v-19.16h3.96v2.19c.65-.79,1.48-1.4,2.49-1.84,1.01-.44,2.08-.66,3.22-.66,1.51,0,2.86.31,4.05.94Z"/>
    <path class="cls-1" d="M720.35,255.27c.8-1.48,1.89-2.64,3.27-3.46,1.38-.82,2.92-1.23,4.61-1.23,1.25,0,2.49.27,3.7.82,1.22.54,2.18,1.27,2.9,2.17v-9.25h4v25.73h-4v-2.89c-.65.93-1.55,1.69-2.7,2.29s-2.46.9-3.95.9c-1.67,0-3.19-.42-4.57-1.27-1.38-.85-2.47-2.03-3.27-3.55-.8-1.52-1.2-3.24-1.2-5.16s.4-3.63,1.2-5.11ZM734.01,257.01c-.55-.97-1.26-1.72-2.14-2.23-.88-.51-1.83-.77-2.85-.77s-1.97.25-2.85.75-1.59,1.23-2.14,2.19c-.55.96-.82,2.1-.82,3.42s.27,2.48.82,3.48c.54,1,1.26,1.76,2.16,2.28.89.52,1.84.78,2.83.78s1.97-.26,2.85-.77c.88-.51,1.59-1.26,2.14-2.24.54-.98.82-2.14.82-3.46s-.27-2.47-.82-3.44Z"/>
    <path class="cls-1" d="M753.41,251.55c1.1-1.88,2.6-3.34,4.49-4.4,1.89-1.05,3.96-1.58,6.21-1.58,2.57,0,4.86.63,6.87,1.89,2,1.26,3.46,3.05,4.36,5.37h-4.76c-.63-1.27-1.5-2.22-2.61-2.85-1.11-.63-2.4-.94-3.86-.94-1.6,0-3.02.36-4.28,1.08-1.25.72-2.23,1.75-2.94,3.09-.71,1.35-1.06,2.91-1.06,4.69s.35,3.35,1.06,4.69c.71,1.35,1.69,2.38,2.94,3.11s2.68,1.1,4.28,1.1c1.46,0,2.75-.31,3.86-.94,1.11-.63,1.98-1.58,2.61-2.85h4.76c-.9,2.32-2.36,4.1-4.36,5.35-2,1.25-4.29,1.88-6.87,1.88-2.27,0-4.35-.53-6.22-1.58-1.88-1.05-3.37-2.52-4.47-4.4-1.1-1.88-1.65-4-1.65-6.36s.55-4.49,1.65-6.36Z"/>
    <path class="cls-1" d="M783.93,244.32v25.73h-3.96v-25.73h3.96Z"/>
    <path class="cls-1" d="M792.55,269.13c-1.46-.82-2.61-1.98-3.44-3.48-.83-1.5-1.25-3.23-1.25-5.2s.43-3.67,1.29-5.18c.86-1.51,2.03-2.67,3.51-3.48,1.48-.81,3.14-1.22,4.97-1.22s3.49.41,4.97,1.22c1.48.81,2.65,1.97,3.51,3.48s1.29,3.23,1.29,5.18-.44,3.67-1.32,5.18-2.08,2.67-3.6,3.49c-1.52.82-3.19,1.23-5.02,1.23s-3.44-.41-4.9-1.23ZM800.32,266.19c.89-.49,1.62-1.22,2.17-2.19s.83-2.16.83-3.55-.27-2.57-.8-3.53c-.53-.96-1.24-1.69-2.12-2.17s-1.83-.73-2.85-.73-1.97.24-2.83.73c-.87.49-1.56,1.21-2.07,2.17-.51.96-.77,2.14-.77,3.53,0,2.06.53,3.66,1.58,4.78,1.05,1.12,2.38,1.69,3.98,1.69,1.02,0,1.98-.24,2.87-.73Z"/>
    <path class="cls-1" d="M828.67,250.89v19.16h-3.96v-2.26c-.63.79-1.44,1.41-2.45,1.86-1.01.45-2.08.68-3.22.68-1.51,0-2.86-.31-4.05-.94-1.19-.63-2.13-1.55-2.82-2.78-.68-1.23-1.02-2.71-1.02-4.45v-11.27h3.93v10.67c0,1.72.43,3.03,1.29,3.95.86.92,2.03,1.37,3.51,1.37s2.66-.46,3.53-1.37,1.3-2.23,1.3-3.95v-10.67h3.96Z"/>
    <path class="cls-1" d="M833.77,255.27c.8-1.48,1.89-2.64,3.27-3.46,1.38-.82,2.92-1.23,4.61-1.23,1.25,0,2.49.27,3.7.82,1.22.54,2.18,1.27,2.9,2.17v-9.25h4v25.73h-4v-2.89c-.65.93-1.55,1.69-2.7,2.29s-2.46.9-3.95.9c-1.67,0-3.19-.42-4.57-1.27-1.38-.85-2.47-2.03-3.27-3.55-.8-1.52-1.2-3.24-1.2-5.16s.4-3.63,1.2-5.11ZM847.43,257.01c-.55-.97-1.26-1.72-2.14-2.23-.88-.51-1.83-.77-2.85-.77s-1.97.25-2.85.75-1.59,1.23-2.14,2.19c-.55.96-.82,2.1-.82,3.42s.27,2.48.82,3.48c.54,1,1.26,1.76,2.16,2.28.89.52,1.84.78,2.83.78s1.97-.26,2.85-.77c.88-.51,1.59-1.26,2.14-2.24.54-.98.82-2.14.82-3.46s-.27-2.47-.82-3.44Z"/>
    <path class="cls-1" d="M866.83,251.55c1.1-1.88,2.6-3.34,4.49-4.4,1.89-1.05,3.96-1.58,6.21-1.58,2.57,0,4.86.63,6.87,1.89,2,1.26,3.46,3.05,4.36,5.37h-4.76c-.63-1.27-1.5-2.22-2.61-2.85-1.11-.63-2.4-.94-3.86-.94-1.6,0-3.02.36-4.28,1.08-1.25.72-2.23,1.75-2.94,3.09-.71,1.35-1.06,2.91-1.06,4.69s.35,3.35,1.06,4.69c.71,1.35,1.69,2.38,2.94,3.11s2.68,1.1,4.28,1.1c1.46,0,2.75-.31,3.86-.94,1.11-.63,1.98-1.58,2.61-2.85h4.76c-.9,2.32-2.36,4.1-4.36,5.35-2,1.25-4.29,1.88-6.87,1.88-2.27,0-4.35-.53-6.22-1.58-1.88-1.05-3.37-2.52-4.47-4.4-1.1-1.88-1.65-4-1.65-6.36s.55-4.49,1.65-6.36Z"/>
    <path class="cls-1" d="M896.79,269.13c-1.46-.82-2.61-1.98-3.44-3.48-.83-1.5-1.25-3.23-1.25-5.2s.43-3.67,1.29-5.18c.86-1.51,2.03-2.67,3.51-3.48,1.48-.81,3.14-1.22,4.97-1.22s3.49.41,4.97,1.22c1.48.81,2.65,1.97,3.51,3.48s1.29,3.23,1.29,5.18-.44,3.67-1.32,5.18-2.08,2.67-3.6,3.49c-1.52.82-3.19,1.23-5.02,1.23s-3.44-.41-4.9-1.23ZM904.56,266.19c.89-.49,1.62-1.22,2.17-2.19s.83-2.16.83-3.55-.27-2.57-.8-3.53c-.53-.96-1.24-1.69-2.12-2.17s-1.83-.73-2.85-.73-1.97.24-2.83.73c-.87.49-1.56,1.21-2.07,2.17-.51.96-.77,2.14-.77,3.53,0,2.06.53,3.66,1.58,4.78,1.05,1.12,2.38,1.69,3.98,1.69,1.02,0,1.98-.24,2.87-.73Z"/>
    <path class="cls-1" d="M942.81,251.52c1.19.62,2.13,1.55,2.82,2.78.68,1.23,1.02,2.71,1.02,4.45v11.3h-3.93v-10.71c0-1.72-.43-3.03-1.29-3.95-.86-.92-2.03-1.37-3.51-1.37s-2.66.46-3.53,1.37-1.3,2.23-1.3,3.95v10.71h-3.93v-10.71c0-1.72-.43-3.03-1.29-3.95-.86-.92-2.03-1.37-3.51-1.37s-2.66.46-3.53,1.37c-.87.92-1.3,2.23-1.3,3.95v10.71h-3.96v-19.16h3.96v2.19c.65-.79,1.47-1.4,2.47-1.84,1-.44,2.06-.66,3.2-.66,1.53,0,2.9.32,4.1.97,1.2.65,2.13,1.59,2.78,2.82.58-1.16,1.48-2.08,2.71-2.76,1.23-.68,2.55-1.03,3.96-1.03,1.51,0,2.86.31,4.05.94Z"/>
    <path class="cls-1" d="M958.4,251.48c1.16-.6,2.47-.9,3.93-.9,1.67,0,3.19.41,4.57,1.23,1.38.82,2.46,1.98,3.25,3.46.79,1.48,1.18,3.19,1.18,5.11s-.39,3.65-1.18,5.16c-.79,1.52-1.87,2.7-3.25,3.55-1.38.85-2.9,1.27-4.57,1.27-1.46,0-2.76-.3-3.89-.89s-2.06-1.33-2.78-2.21v11.89h-3.96v-28.27h3.96v2.82c.67-.88,1.59-1.62,2.75-2.22ZM966.49,256.96c-.55-.96-1.26-1.69-2.16-2.19-.89-.5-1.85-.75-2.87-.75s-1.94.26-2.83.77c-.89.51-1.61,1.25-2.16,2.23-.55.97-.82,2.12-.82,3.44s.27,2.47.82,3.46c.54.99,1.26,1.73,2.16,2.24.89.51,1.84.77,2.83.77s1.97-.26,2.87-.78c.89-.52,1.61-1.28,2.16-2.28.54-1,.82-2.16.82-3.48s-.27-2.46-.82-3.42Z"/>
    <path class="cls-1" d="M992.62,250.89v19.16h-3.96v-2.26c-.63.79-1.44,1.41-2.45,1.86-1.01.45-2.08.68-3.22.68-1.51,0-2.86-.31-4.05-.94-1.19-.63-2.13-1.55-2.82-2.78-.68-1.23-1.02-2.71-1.02-4.45v-11.27h3.93v10.67c0,1.72.43,3.03,1.29,3.95.86.92,2.03,1.37,3.51,1.37s2.66-.46,3.53-1.37,1.3-2.23,1.3-3.95v-10.67h3.96Z"/>
    <path class="cls-1" d="M1002.46,254.12v10.61c0,.72.17,1.23.5,1.55.34.31.91.47,1.72.47h2.43v3.3h-3.13c-1.78,0-3.15-.42-4.1-1.25s-1.43-2.19-1.43-4.07v-10.61h-2.26v-3.23h2.26v-4.76h4v4.76h4.66v3.23h-4.66Z"/>
    <path class="cls-1" d="M1010.98,247.62c-.49-.49-.73-1.09-.73-1.81s.24-1.32.73-1.81c.49-.49,1.09-.73,1.81-.73s1.29.24,1.77.73.73,1.09.73,1.81-.24,1.32-.73,1.81-1.08.73-1.77.73-1.32-.24-1.81-.73ZM1014.73,250.89v19.16h-3.96v-19.16h3.96Z"/>
    <path class="cls-1" d="M1033.66,251.52c1.19.62,2.13,1.55,2.8,2.78s1.01,2.71,1.01,4.45v11.3h-3.93v-10.71c0-1.72-.43-3.03-1.29-3.95-.86-.92-2.03-1.37-3.51-1.37s-2.66.46-3.53,1.37c-.87.92-1.3,2.23-1.3,3.95v10.71h-3.96v-19.16h3.96v2.19c.65-.79,1.48-1.4,2.49-1.84,1.01-.44,2.08-.66,3.22-.66,1.51,0,2.86.31,4.05.94Z"/>
    <path class="cls-1" d="M1054.18,251.46c1.15.59,2.05,1.33,2.7,2.21v-2.78h4v19.47c0,1.76-.37,3.33-1.11,4.71-.74,1.38-1.81,2.46-3.22,3.25-1.4.79-3.08,1.18-5.02,1.18-2.6,0-4.75-.61-6.47-1.82-1.72-1.22-2.69-2.87-2.92-4.96h3.93c.3,1,.94,1.8,1.93,2.42.98.61,2.16.92,3.53.92,1.6,0,2.89-.49,3.88-1.46s1.48-2.39,1.48-4.24v-3.2c-.67.9-1.58,1.66-2.73,2.28s-2.45.92-3.91.92c-1.67,0-3.19-.42-4.57-1.27-1.38-.85-2.47-2.03-3.27-3.55-.8-1.52-1.2-3.24-1.2-5.16s.4-3.63,1.2-5.11c.8-1.48,1.89-2.64,3.27-3.46,1.38-.82,2.9-1.23,4.57-1.23,1.48,0,2.8.3,3.95.89ZM1056.06,257.01c-.55-.97-1.26-1.72-2.14-2.23-.88-.51-1.83-.77-2.85-.77s-1.97.25-2.85.75-1.59,1.23-2.14,2.19c-.55.96-.82,2.1-.82,3.42s.27,2.48.82,3.48c.54,1,1.26,1.76,2.16,2.28.89.52,1.84.78,2.83.78s1.97-.26,2.85-.77c.88-.51,1.59-1.26,2.14-2.24.54-.98.82-2.14.82-3.46s-.27-2.47-.82-3.44Z"/>
  </g>
</svg>